<?xml version="1.0" encoding="utf-8"?>
<!-- Generator: Adobe Illustrator 16.0.0, SVG Export Plug-In . SVG Version: 6.00 Build 0)  -->
<!DOCTYPE svg PUBLIC "-//W3C//DTD SVG 1.1//EN" "http://www.w3.org/Graphics/SVG/1.1/DTD/svg11.dtd">
<svg version="1.1" id="图层_2" xmlns="http://www.w3.org/2000/svg" xmlns:xlink="http://www.w3.org/1999/xlink" x="0px" y="0px"
	 width="114px" height="40px" viewBox="0 0 114 40" enable-background="new 0 0 114 40" xml:space="preserve">
<path fill="#b7b7b7" d="M21.829,27.639h3.636v-1h1.424v1h3.171v-1h1.424v1h3.537v1.213h-3.537v0.719H30.06v-0.719h-3.17v0.705
	h-1.424v-0.705H21.83L21.829,27.639L21.829,27.639z M21.829,38.28h1.381v-3.425h10.473v3.425h1.354v1.226H21.829V38.28z
	 M22.872,30.232h1.354v3.918h-1.354V30.232z M24.705,38.28h1.621v-2.255h-1.621V38.28z M25.748,29.88h1.409v4.384h-1.409V29.88z
	 M27.425,33.475c0.944-1.143,1.551-2.257,1.974-3.664l1.423,0.211l-0.295,0.804h4.271v1.196h-4.793
	c-0.395,0.791-0.846,1.51-1.409,2.242C28.257,34.01,27.834,33.729,27.425,33.475 M27.636,38.28h1.621v-2.255h-1.621V38.28z
	 M30.329,32.98l0.831-0.832c0.847,0.535,1.522,0.986,2.34,1.564l-0.889,0.932C31.865,34.066,31.174,33.559,30.329,32.98
	 M30.554,38.28h1.635v-2.255h-1.635V38.28z"/>
<path fill="#b7b7b7" d="M40.903,31.162l1.169-0.704c0.62,0.662,1.226,1.367,1.846,2.114l-1.254,0.803
	C42.114,32.67,41.564,31.979,40.903,31.162 M43.679,34.954l-1.071,4.905l-1.451-0.395c0.423-1.523,0.86-3.37,1.183-5.09
	c0.396,0.143,0.875,0.296,1.24,0.396c0-0.016-0.014-0.028-0.014-0.043c1.283-0.705,2.241-1.594,3.002-2.75H44.06v-1.184h2.296
	v-1.521h-1.733v-1.156h1.733V26.68h1.354v1.438h2.481V26.68h1.353v1.438h1.988v1.156h-1.988v1.521h2.509v1.184h-2.691
	c0.733,1.114,1.607,1.849,2.917,2.453l-0.677,1.27c-0.832-0.492-1.48-0.986-2.044-1.537v2.763H46.78v0.606
	c0,0.635,0.254,0.888,0.874,0.888h3.439c0.634,0,0.973-0.239,1.1-0.774c0.084-0.353,0.154-0.774,0.225-1.312
	c0.409,0.142,0.832,0.281,1.24,0.396c-0.113,0.678-0.211,1.143-0.324,1.578c-0.239,0.859-0.817,1.282-2.015,1.282h-4.186
	c-1.072,0-1.678-0.563-1.678-1.69v-2.877c-0.395,0.34-0.832,0.679-1.297,1.002C44.017,35.674,43.863,35.32,43.679,34.954
	 M41.283,27.525l1.24-0.705l1.79,2.113l-1.296,0.805C42.467,29.006,41.861,28.26,41.283,27.525 M46.78,35.855h3.482v-1.353H46.78
	V35.855z M47.005,33.417h3.877c-0.353-0.423-0.648-0.899-0.944-1.438h-1.917C47.71,32.501,47.372,32.966,47.005,33.417
	 M47.71,30.796h2.481v-1.522H47.71V30.796z"/>
<path fill="#b7b7b7" d="M60.68,27.482h12.166v1.396h-8.557l-0.255,1.776h7.399l-0.437,7.118h2.284v1.395H60.258v-1.395h9.176
	l0.112-1.918h-7.778l0.942-6.978h-2.03V27.482z M63.838,31.994l-0.354,2.509h6.146l0.169-2.509H63.838z"/>
<path fill="#b7b7b7" d="M79.303,31.318h6.385v1.311h-2.806c-0.62,1.592-1.198,2.987-1.789,4.229
	c0.817-0.043,1.873-0.112,2.861-0.196c-0.339-0.86-0.647-1.638-0.974-2.411l1.197-0.422c0.508,1.127,1.086,2.537,1.607,3.834
	c1.027-1.537,1.339-3.145,1.438-6.4c0-0.183,0.014-0.365,0.014-0.549h-1.522v-1.339h1.565c0.029-0.847,0.029-1.72,0.044-2.707h1.407
	c-0.014,0.847-0.027,1.774-0.056,2.707h3.494c-0.041,3.03-0.112,6.243-0.183,8.132c-0.069,1.396-0.648,2.03-1.859,2.086
	c-0.494,0.028-1.27,0.044-1.904,0.044c-0.084-0.45-0.225-1.058-0.352-1.522c0.55,0.027,1.07,0.057,1.635,0.057
	c0.689,0,0.987-0.325,1.03-1.07c0.083-1.595,0.168-4.201,0.168-6.386h-2.072c0,0.211-0.015,0.408-0.015,0.606
	c-0.154,4.326-0.646,6.061-2.706,8.683c-0.423-0.297-0.817-0.551-1.312-0.86c0.324-0.365,0.621-0.703,0.875-1.043l-0.832,0.366
	c-0.027-0.084-0.127-0.353-0.211-0.549c-1.298,0.099-2.326,0.196-3.354,0.295c-0.479,0.058-0.832,0.142-1.255,0.269l-0.551-1.283
	c0.27-0.225,0.51-0.563,0.678-0.93c0.479-1.028,1.015-2.425,1.382-3.637h-2.028V31.318L79.303,31.318z M79.923,27.639h5.285v1.324
	h-5.285V27.639z"/>
<g>
	<path fill="#006AB4" d="M113.066,25.093L113.066,25.093c-16.951-2.989-34.752-4.524-56.038-4.524c-0.009,0-0.019,0.002-0.028,0.002
		c-0.01,0-0.021-0.002-0.03-0.002c-21.286,0-39.086,1.535-56.037,4.523v0.001c-0.134,0.024-0.235,0.144-0.235,0.282
		c0,0.16,0.129,0.289,0.289,0.289c0.014,0,0.027-0.001,0.041-0.003c18.41-1.96,36.426-2.847,55.942-2.853h0.03h0.028
		c19.517,0.006,37.532,0.893,55.942,2.853c0.014,0.002,0.026,0.003,0.041,0.003c0.159,0,0.288-0.129,0.288-0.289
		C113.301,25.234,113.2,25.117,113.066,25.093"/>
	<path fill="#F4A000" d="M72.586-0.001c-4.675,0-8.465,3.789-8.465,8.464c0,4.675,3.79,8.464,8.465,8.464
		c4.674,0,8.464-3.789,8.464-8.464C81.05,3.788,77.26-0.001,72.586-0.001 M72.586,13.293c-2.669,0-4.832-2.162-4.832-4.83
		s2.163-4.831,4.832-4.831c2.668,0,4.83,2.163,4.83,4.831S75.254,13.293,72.586,13.293"/>
	<path fill="#009B6E" d="M49.507,0.165h-6.062c-0.005,0-0.116,0-0.165,0.001c-1.52,0.017-3.052,0.45-4.42,1.338
		C35.017,4,33.925,9.14,36.421,12.981c1.598,2.463,4.282,3.797,7.016,3.779c0.003,0,6.07,0,6.07,0v-3.016h-5.454h-0.008v-0.003
		c-2.22-0.078-4.093-1.521-4.802-3.517h10.265V6.7H39.234c0.43-1.227,1.298-2.246,2.417-2.872c0.361-0.202,0.748-0.362,1.154-0.477
		c0.396-0.11,0.813-0.176,1.24-0.19c0,0,0.188-0.004,0.189-0.004h5.273V0.165z"/>
	<rect x="13.493" y="0.165" fill="#E84729" width="3.526" height="16.596"/>
	<polygon fill="#F4A000" points="22.172,5.213 22.172,16.761 18.804,16.761 18.804,0.165 23.327,0.165 29.93,12.53 29.93,0.165
		33.297,0.165 33.297,16.761 28.326,16.761 	"/>
	<path fill="#006AB4" d="M0.053,0.165h3.576v10.747c0,1.263,0.688,2.073,1.604,2.437c0.345,0.137,0.687,0.174,1.14,0.173
		c1.636-0.001,5.337,0.002,5.335,0.001v3.237H6.412c-0.573,0-1.143,0.017-1.683-0.048c-1.935-0.229-3.38-1.394-4.117-2.919
		c-0.432-0.896-0.543-2.118-0.557-3.429C0.043,9.346,0.053,0.165,0.053,0.165"/>
	<rect x="51.292" y="0.165" fill="#006AB4" width="3.525" height="16.596"/>
	<polygon fill="#006AB4" points="55.146,8.359 61.505,0.165 66.148,0.165 59.287,8.359 65.82,16.761 61.165,16.761 	"/>
	<polygon fill="#E84729" points="86.203,5.213 86.203,16.761 82.834,16.761 82.834,0.165 87.357,0.165 93.96,12.53 93.96,0.165
		97.328,0.165 97.328,16.761 92.355,16.761 	"/>
	<path fill="#006AB4" d="M108.186,3.153c0.069,0,0.883,0.004,0.883,0.004h4.884V0.163h-6.042c-0.028,0-0.574,0.004-0.803,0.011
		c-1.457,0.048-2.916,0.48-4.229,1.332c-3.832,2.487-4.921,7.61-2.432,11.443c1.396,2.148,3.619,3.47,5.979,3.746
		c0.457,0.091,2.29,0.064,2.86,0.064h4.664V6.698h-7.017v3.525h3.49v3.521h-1.357h-0.691c0,0-0.21,0.006-0.38,0
		c-0.251-0.009-0.636-0.066-0.938-0.133c-1.324-0.288-2.461-1.07-3.211-2.143c-0.6-0.858-0.949-1.901-0.949-3.026
		c0-1.126,0.351-2.169,0.949-3.026C104.805,4.049,106.391,3.153,108.186,3.153"/>
</g>
</svg>
